<svg width="58" height="40" viewBox="0 0 58 40" fill="none" xmlns="http://www.w3.org/2000/svg">
<path d="M10.3172 27.941C11.0949 28.9704 13.4913 28.4708 15.6698 26.8251C17.8483 25.1794 18.9839 23.0107 18.2062 21.9813C17.4285 20.9518 15.032 21.4514 12.8535 23.0971C10.6751 24.7429 9.53952 26.9115 10.3172 27.941Z" fill="url(#paint0_radial_637_13)"/>
<path d="M11.8051 32.7718C12.7042 33.962 15.7086 33.2077 18.5157 31.0871C21.3227 28.9665 22.8695 26.2827 21.9704 25.0925C21.0713 23.9024 18.0669 24.6566 15.2598 26.7772C12.4527 28.8977 10.906 31.5817 11.8051 32.7718Z" fill="url(#paint1_radial_637_13)"/>
<path d="M15.4754 36.5181C16.4921 37.8639 19.5918 37.2357 22.3989 35.1151C25.2059 32.9946 26.6574 30.1846 25.6408 28.8388C24.6241 27.4931 21.5244 28.1212 18.7173 30.2418C15.9103 32.3624 14.4588 35.1724 15.4754 36.5181Z" fill="url(#paint2_radial_637_13)"/>
<path d="M25.5112 38.029C23.3395 39.6696 20.7244 39.8685 20.1547 39.1144C19.5851 38.3603 20.4912 35.8992 22.6629 34.2586C24.8347 32.6179 27.2328 32.132 28.0194 33.1731C28.8059 34.2143 27.683 36.3883 25.5112 38.029Z" fill="url(#paint3_radial_637_13)"/>
<path d="M21.7527 9.16608L17.706 14.4771C17.3681 14.9205 17.2513 15.4918 17.4079 16.0269C19.2275 22.2456 24.0854 33.3899 31.8215 33.9268C39.9232 34.4892 45.9121 30.876 47.8938 28.9992L56.5999 31.401C58.0999 27.801 58.0999 19.701 56.5999 16.401L46.7596 17.8115L32.1375 7.95208C31.7881 7.71658 31.3672 7.61098 30.9481 7.65388L23.0014 8.46638C22.5063 8.51698 22.0543 8.77028 21.7527 9.16608Z" fill="url(#paint4_radial_637_13)"/>
<path d="M10.4693 19.1497C8.9209 17.08 2.42118 16.7712 1.09986 16.09C1.09986 16.09 -0.427802 10.6724 1.09986 7.10078C2.62752 3.52918 7.3999 0.800781 7.3999 0.800781C14.5448 1.22958 23.1531 13.0326 31.7318 15.9063C32.1172 16.0353 32.4751 16.2394 32.7568 16.5324C37.3515 21.3126 38.3025 25.6196 41.7773 31.0968C42.2257 31.8036 42.1881 32.749 41.6416 33.3829C41.0104 34.1153 40.4687 34.446 38.4503 34.3248C38.8594 37.0105 35.3821 37.9422 33.6794 36.2244C33.3744 39.7225 29.4312 38.9155 28.4634 37.622C28.774 38.7811 26.3781 39.1125 25.1206 37.8965C23.863 36.6805 21.7333 33.3689 18.31 31.0251C14.8868 28.6812 11.5564 23.2066 10.4693 19.1497Z" fill="url(#paint5_radial_637_13)"/>
<path opacity="0.7" fill-rule="evenodd" clip-rule="evenodd" d="M30.0849 38.5871C29.3846 38.3976 28.7724 38.0342 28.4634 37.6212C28.5577 37.9735 28.4022 38.2493 28.1045 38.4285C27.1968 36.2618 25.467 33.6946 24.2725 31.9217C23.2371 30.3852 22.6038 29.4454 23.2563 29.88C24.3399 30.6019 26.676 33.8597 28.5156 36.4253C29.1103 37.2546 29.653 38.0116 30.0849 38.5871ZM34.7994 36.9206C34.3881 36.7793 34.0019 36.549 33.6794 36.2236C33.6424 36.6479 33.5518 37.0089 33.4196 37.3133C32.0072 34.7218 30.0009 31.5986 28.5498 29.3396C26.9589 26.863 26.035 25.425 27.2923 26.8643C29.4474 29.3315 32.7061 33.8892 34.7994 36.9206ZM39.6709 34.3339C39.3348 34.3562 38.9352 34.3532 38.4503 34.3241C38.4945 34.6141 38.4933 34.8838 38.454 35.1317C37.644 33.1931 36.2669 30.7235 35.1475 29.0196C34.5031 28.0386 33.5016 26.7317 32.644 25.6126C31.3097 23.8712 30.3236 22.5842 31.5723 23.6868C33.4212 25.3192 37.1676 30.1952 39.6709 34.3339Z" fill="url(#paint6_radial_637_13)"/>
<path opacity="0.4" fill-rule="evenodd" clip-rule="evenodd" d="M44.1938 16.082C45.9049 17.9261 47.5346 20.0369 48.5578 21.4603C48.7358 21.7078 49.1089 21.6044 49.0948 21.3001C49.0367 20.0355 48.5575 18.7668 47.9666 17.6798L46.7596 17.8121L44.1938 16.082Z" fill="url(#paint7_radial_637_13)"/>
<path d="M21.7358 9.18689C21.488 9.48989 18.6017 13.0142 17.7291 13.788C17.3993 14.0804 17.2455 14.3841 17.1911 14.678C17.0423 15.4794 17.9752 16.0039 18.7802 15.8763C19.3539 15.7854 20.0907 15.6399 20.9582 15.4074C23.1509 14.8199 25.7238 12.3287 25.7238 12.3287L32.1375 7.95209C31.7881 7.71649 31.3672 7.61099 30.9481 7.65389L23.0014 8.46629C22.5163 8.51589 22.0725 8.76019 21.7711 9.14239C21.7587 9.15799 21.7484 9.17139 21.7358 9.18689Z" fill="url(#paint8_radial_637_13)"/>
<path opacity="0.4" fill-rule="evenodd" clip-rule="evenodd" d="M8.69336 17.9783C9.51456 18.3333 10.1509 18.7221 10.4694 19.1478C10.6248 19.7279 10.8262 20.3371 11.0671 20.9619C10.5595 18.6282 10.2327 16.1784 10.0679 14.5306C10.0375 14.2272 9.66266 14.1302 9.52266 14.4008C8.95976 15.4882 8.73606 16.7759 8.69336 17.9783Z" fill="url(#paint9_radial_637_13)"/>
<path opacity="0.3" d="M33.1012 32.6484C34.4529 34.9897 36.0482 36.5993 36.6643 36.2436C37.2805 35.8879 36.6841 33.7015 35.3324 31.3603C33.9807 29.019 32.3854 27.4094 31.7693 27.7651C31.1531 28.1208 31.7495 30.3072 33.1012 32.6484Z" fill="url(#paint10_radial_637_13)"/>
<path opacity="0.3" d="M37.2716 29.6641C38.6234 32.0053 40.2186 33.615 40.8348 33.2592C41.4509 32.9035 40.8546 30.7172 39.5028 28.3759C38.1511 26.0346 36.5558 24.425 35.9397 24.7807C35.3235 25.1364 35.9199 27.3228 37.2716 29.6641Z" fill="url(#paint11_radial_637_13)"/>
<path opacity="0.3" d="M28.0402 34.625C29.3919 36.9663 30.9872 38.5759 31.6033 38.2202C32.2194 37.8645 31.6231 35.6781 30.2714 33.3368C28.9196 30.9955 27.3244 29.3859 26.7082 29.7416C26.0921 30.0974 26.6884 32.2837 28.0402 34.625Z" fill="url(#paint12_radial_637_13)"/>
<path opacity="0.2" d="M19.6922 12.3023C18.4406 13.1373 17.7461 14.294 18.141 14.8858C18.5358 15.4776 19.8705 15.2805 21.1221 14.4454C22.3736 13.6104 23.0681 12.4537 22.6732 11.8619C22.2784 11.2701 20.9437 11.4673 19.6922 12.3023Z" fill="url(#paint13_radial_637_13)"/>
<path opacity="0.3" d="M23.7574 35.6779C24.9541 37.4158 26.295 38.5694 26.7523 38.2545C27.2097 37.9395 26.6103 36.2754 25.4135 34.5375C24.2168 32.7996 22.8759 31.646 22.4186 31.961C21.9612 32.2759 22.5606 33.94 23.7574 35.6779Z" fill="url(#paint14_radial_637_13)"/>
<defs>
<radialGradient id="paint0_radial_637_13" cx="0" cy="0" r="1" gradientUnits="userSpaceOnUse" gradientTransform="translate(10.6224 27.9793) rotate(-51.8639) scale(4.09496 4.04408)">
<stop stop-color="#DB5B24"/>
<stop offset="0.625" stop-color="#C11119"/>
<stop offset="1" stop-color="#45172B"/>
</radialGradient>
<radialGradient id="paint1_radial_637_13" cx="0" cy="0" r="1" gradientUnits="userSpaceOnUse" gradientTransform="translate(12.1813 32.7986) rotate(-50.3999) scale(5.24285 4.70531)">
<stop stop-color="#DB5B24"/>
<stop offset="0.625" stop-color="#C11119"/>
<stop offset="1" stop-color="#45172B"/>
</radialGradient>
<radialGradient id="paint2_radial_637_13" cx="0" cy="0" r="1" gradientUnits="userSpaceOnUse" gradientTransform="translate(15.8712 36.5707) rotate(-52.0689) scale(5.28154)">
<stop stop-color="#DB5B24"/>
<stop offset="0.625" stop-color="#C11119"/>
<stop offset="1" stop-color="#45172B"/>
</radialGradient>
<radialGradient id="paint3_radial_637_13" cx="0" cy="0" r="1" gradientUnits="userSpaceOnUse" gradientTransform="translate(20.461 39.1551) rotate(-52.0689) scale(4.08619)">
<stop stop-color="#DB5B24"/>
<stop offset="0.625" stop-color="#C11119"/>
<stop offset="1" stop-color="#45172B"/>
</radialGradient>
<radialGradient id="paint4_radial_637_13" cx="0" cy="0" r="1" gradientUnits="userSpaceOnUse" gradientTransform="translate(19.1114 22.4245) scale(38.3885)">
<stop stop-color="#FFD0BB"/>
<stop offset="0.255208" stop-color="#F7976E"/>
<stop offset="0.473296" stop-color="#EF7744"/>
<stop offset="0.682834" stop-color="#EB3942"/>
<stop offset="0.822917" stop-color="#E50914"/>
<stop offset="0.888897" stop-color="#E50914" stop-opacity="0.8"/>
<stop offset="1" stop-color="#E75094" stop-opacity="0"/>
</radialGradient>
<radialGradient id="paint5_radial_637_13" cx="0" cy="0" r="1" gradientUnits="userSpaceOnUse" gradientTransform="translate(42.8122 29.7397) rotate(-135) scale(44.7442)">
<stop stop-color="#D67DF7"/>
<stop offset="0.25" stop-color="#B038DC"/>
<stop offset="0.473958" stop-color="#792A95"/>
<stop offset="0.863188" stop-color="#B82869"/>
<stop offset="0.930549" stop-color="#D3317A" stop-opacity="0.7"/>
<stop offset="1" stop-color="#E50914" stop-opacity="0"/>
</radialGradient>
<radialGradient id="paint6_radial_637_13" cx="0" cy="0" r="1" gradientUnits="userSpaceOnUse" gradientTransform="translate(33.757 36.5134) rotate(-124.799) scale(23.9136 28.0946)">
<stop stop-color="#210D16"/>
<stop offset="1" stop-color="#B038DC" stop-opacity="0"/>
</radialGradient>
<radialGradient id="paint7_radial_637_13" cx="0" cy="0" r="1" gradientUnits="userSpaceOnUse" gradientTransform="translate(46.3145 17.3102) rotate(62.9052) scale(4.29535)">
<stop/>
<stop offset="1" stop-opacity="0"/>
</radialGradient>
<radialGradient id="paint8_radial_637_13" cx="0" cy="0" r="1" gradientUnits="userSpaceOnUse" gradientTransform="translate(17.7138 17.2085) rotate(-10.3999) scale(26.1844)">
<stop stop-color="#FBB698"/>
<stop offset="0.250197" stop-color="#F89971"/>
<stop offset="0.392572" stop-color="#F38759"/>
<stop offset="1" stop-color="#EF7244" stop-opacity="0"/>
</radialGradient>
<radialGradient id="paint9_radial_637_13" cx="0" cy="0" r="1" gradientUnits="userSpaceOnUse" gradientTransform="translate(9.67496 18.6882) rotate(-87.2205) scale(4.71962 4.7657)">
<stop/>
<stop offset="1" stop-opacity="0"/>
</radialGradient>
<radialGradient id="paint10_radial_637_13" cx="0" cy="0" r="1" gradientUnits="userSpaceOnUse" gradientTransform="translate(36.6349 35.978) rotate(-120) scale(6.3636 5.58211)">
<stop stop-color="white"/>
<stop offset="1" stop-color="white" stop-opacity="0"/>
</radialGradient>
<radialGradient id="paint11_radial_637_13" cx="0" cy="0" r="1" gradientUnits="userSpaceOnUse" gradientTransform="translate(40.8054 32.9936) rotate(-120) scale(6.3636 5.58212)">
<stop stop-color="white"/>
<stop offset="1" stop-color="white" stop-opacity="0"/>
</radialGradient>
<radialGradient id="paint12_radial_637_13" cx="0" cy="0" r="1" gradientUnits="userSpaceOnUse" gradientTransform="translate(31.5739 37.9545) rotate(-120) scale(6.3636 5.58211)">
<stop stop-color="white"/>
<stop offset="1" stop-color="white" stop-opacity="0"/>
</radialGradient>
<radialGradient id="paint13_radial_637_13" cx="0" cy="0" r="1" gradientUnits="userSpaceOnUse" gradientTransform="translate(18.3139 14.8995) rotate(-33.711) scale(3.54147 5.58211)">
<stop stop-color="white"/>
<stop offset="1" stop-color="white" stop-opacity="0"/>
</radialGradient>
<radialGradient id="paint14_radial_637_13" cx="0" cy="0" r="1" gradientUnits="userSpaceOnUse" gradientTransform="translate(26.713 38.0496) rotate(-124.551) scale(4.96684 4.35688)">
<stop stop-color="white"/>
<stop offset="1" stop-color="white" stop-opacity="0"/>
</radialGradient>
</defs>
</svg>
