<svg width="58" height="54" viewBox="0 0 58 54" fill="none" xmlns="http://www.w3.org/2000/svg">
<path opacity="0.75" d="M26.2999 32.4016C35.0812 32.4016 42.1999 25.2829 42.1999 16.5016C42.1999 7.7202 35.0812 0.601562 26.2999 0.601562C17.5186 0.601562 10.3999 7.7202 10.3999 16.5016C10.3999 25.2829 17.5186 32.4016 26.2999 32.4016Z" fill="url(#paint0_radial_637_3)"/>
<path d="M28.1825 27.3894C28.4958 27.86 29.2265 27.6758 29.2793 27.113L29.9254 20.2287L35.8895 18.6128C36.4204 18.4689 36.4925 17.749 35.998 17.508C34.1817 16.623 32.3079 15.7712 30.382 14.9579L30.71 7.67144C30.7353 7.10884 30.0417 6.82444 29.6648 7.24284L24.7163 12.7355C22.7388 12.0179 20.7714 11.364 18.8224 10.7736C18.2994 10.6151 17.8628 11.1845 18.1466 11.6516L21.3039 16.8469L16.9085 22.2192C16.5466 22.6614 16.9494 23.3113 17.5065 23.184L24.3428 21.6222L28.1825 27.3894Z" fill="url(#paint1_radial_637_3)"/>
<path d="M23.0589 43.3642C23.0589 43.3642 11.3765 35.2675 11.9549 33.8795C12.5332 32.4915 23.8301 39.0845 23.8301 39.0845" fill="url(#paint2_radial_637_3)"/>
<path d="M18.8177 42.2858C18.8177 42.2858 5.82445 36.5024 6.13285 35.0373C6.44135 33.5722 18.7792 37.9675 18.7792 37.9675" fill="url(#paint3_radial_637_3)"/>
<path d="M57.8001 53.9992C55.6023 49.1194 48.5082 42.9257 45.7322 40.6359C42.9562 38.3837 40.4115 34.1795 32.7774 35.0053C26.1458 35.7185 21.0179 33.241 20.1311 34.6299C19.7456 35.2305 22.3542 36.4854 25.4001 37.7992C20.118 38.0995 12.6513 38.0458 3.128 36.5819C0.42909 36.169 -0.92037 37.0699 1.35441 38.1585C14.0393 44.202 26.2229 47.4677 36.286 46.0413C46.3491 44.6149 46.0792 53.9992 46.0792 53.9992H57.8001Z" fill="url(#paint4_radial_637_3)"/>
<path d="M34.7897 42.4971C33.6111 42.625 32.3813 42.6927 31.1169 42.6927C24.219 42.6927 18.353 40.6776 16.1943 37.8677C19.7663 38.0087 22.8397 37.9463 25.3999 37.8008C27.0999 38.4919 30.7999 40.0268 31.9999 40.6375C32.7338 41.011 33.8678 41.6288 34.7897 42.4971Z" fill="url(#paint5_radial_637_3)"/>
<path opacity="0.3" d="M44.6 41.2519C43.7241 39.2218 40.5152 35.2104 34.6867 35.4053C27.4011 35.6489 36.3589 47.8293 44.6 41.2519Z" fill="url(#paint6_radial_637_3)"/>
<defs>
<radialGradient id="paint0_radial_637_3" cx="0" cy="0" r="1" gradientUnits="userSpaceOnUse" gradientTransform="translate(26.2999 16.5866) rotate(-90) scale(15.985)">
<stop stop-color="#982DBE"/>
<stop offset="0.383578" stop-color="#B038DC" stop-opacity="0.25"/>
<stop offset="1" stop-color="#E4A1FA" stop-opacity="0"/>
</radialGradient>
<radialGradient id="paint1_radial_637_3" cx="0" cy="0" r="1" gradientUnits="userSpaceOnUse" gradientTransform="translate(30.8001 13.8617) rotate(135) scale(16.7584 16.7339)">
<stop stop-color="#EF7744"/>
<stop offset="0.333333" stop-color="#E50914"/>
<stop offset="0.666667" stop-color="#A70D53"/>
<stop offset="1" stop-color="#792A95"/>
</radialGradient>
<radialGradient id="paint2_radial_637_3" cx="0" cy="0" r="1" gradientUnits="userSpaceOnUse" gradientTransform="translate(23.3001 33.3) rotate(126.733) scale(25.0801)">
<stop stop-color="#802600"/>
<stop offset="0.333333" stop-color="#6F181D"/>
<stop offset="0.666667" stop-color="#5B1333"/>
<stop offset="1" stop-color="#391945"/>
</radialGradient>
<radialGradient id="paint3_radial_637_3" cx="0" cy="0" r="1" gradientUnits="userSpaceOnUse" gradientTransform="translate(21.5 34.2011) rotate(136.42) scale(25.6759 22.561)">
<stop stop-color="#99421D"/>
<stop offset="0.333333" stop-color="#99161D"/>
<stop offset="0.666667" stop-color="#7D1845"/>
<stop offset="1" stop-color="#59216E"/>
</radialGradient>
<radialGradient id="paint4_radial_637_3" cx="0" cy="0" r="1" gradientUnits="userSpaceOnUse" gradientTransform="translate(30.7282 34.3619) rotate(82.4019) scale(21.7815 180.122)">
<stop stop-color="#EF7744"/>
<stop offset="0.328125" stop-color="#E50914"/>
<stop offset="0.588542" stop-color="#E50914"/>
<stop offset="0.697917" stop-color="#EB3942"/>
<stop offset="0.879831" stop-color="#E75094" stop-opacity="0.8"/>
<stop offset="1" stop-color="#F276AE" stop-opacity="0"/>
</radialGradient>
<radialGradient id="paint5_radial_637_3" cx="0" cy="0" r="1" gradientUnits="userSpaceOnUse" gradientTransform="translate(31.1398 35.4974) scale(13.1967 6.7149)">
<stop offset="0.1422"/>
<stop offset="0.9144" stop-opacity="0"/>
</radialGradient>
<radialGradient id="paint6_radial_637_3" cx="0" cy="0" r="1" gradientUnits="userSpaceOnUse" gradientTransform="translate(39.2 36.2984) rotate(135) scale(5.9397 5.65138)">
<stop stop-color="white"/>
<stop offset="1" stop-color="white" stop-opacity="0"/>
</radialGradient>
</defs>
</svg>
